<?xml version="1.0" standalone="no"?>
<!DOCTYPE svg PUBLIC "-//W3C//DTD SVG 20010904//EN"
 "http://www.w3.org/TR/2001/REC-SVG-20010904/DTD/svg10.dtd">
<svg version="1.0" xmlns="http://www.w3.org/2000/svg"
 width="140.000000pt" height="140.000000pt" viewBox="0 0 140.000000 140.000000"
 preserveAspectRatio="xMidYMid meet">
<metadata>
Created by potrace 1.11, written by Peter Selinger 2001-2013
</metadata>
<g transform="translate(0.000000,140.000000) scale(0.100000,-0.100000)"
fill="#000000" stroke="none">
<path d="M841 1256 c-10 -12 -8 -17 11 -26 20 -10 21 -10 6 3 -13 10 -15 16
-6 25 7 7 9 12 6 12 -3 0 -11 -6 -17 -14z"/>
<path d="M845 1200 c-16 -7 -17 -9 -3 -9 9 -1 20 4 23 9 7 11 7 11 -20 0z"/>
<path d="M870 1179 c0 -5 5 -7 10 -4 6 3 10 8 10 11 0 2 -4 4 -10 4 -5 0 -10
-5 -10 -11z"/>
<path d="M840 1170 c13 -9 13 -11 0 -19 -8 -6 -11 -13 -7 -18 5 -4 13 -1 18 7
9 12 10 12 5 -3 -3 -10 -6 -21 -6 -23 0 -3 -4 -3 -8 0 -4 2 -9 -7 -10 -20 -1
-15 2 -23 8 -19 6 4 8 10 5 15 -3 5 0 12 6 16 8 5 9 3 4 -6 -5 -8 -4 -11 3 -6
7 4 10 -1 7 -14 -3 -13 0 -18 7 -14 7 5 8 2 3 -7 -5 -8 -4 -11 1 -6 4 4 9 23
9 42 1 29 -1 33 -14 22 -12 -10 -14 -9 -8 6 8 21 -8 57 -26 57 -8 0 -6 -4 3
-10z"/>
<path d="M658 1079 c-115 -17 -228 -103 -283 -215 -27 -54 -29 -69 -29 -164
-1 -94 2 -111 27 -161 15 -30 44 -73 64 -95 53 -55 114 -104 123 -99 10 6 22
-24 14 -36 -3 -5 -10 -6 -16 -3 -7 4 -6 9 2 14 8 5 6 9 -7 12 -14 4 -19 0 -18
-18 0 -12 4 -26 8 -30 4 -5 5 0 1 11 -7 18 -6 19 10 6 17 -14 16 -16 -6 -34
-15 -12 -17 -17 -6 -13 9 2 19 2 21 -2 2 -4 2 -1 1 5 -2 7 5 17 14 22 9 6 12
11 5 11 -8 0 -8 6 0 24 9 20 15 22 34 15 40 -15 126 -17 190 -3 93 19 176 74
234 155 l20 28 -21 11 c-24 13 -50 7 -50 -10 0 -6 6 -8 13 -4 7 4 9 3 4 -2 -5
-5 -12 -9 -15 -9 -15 0 -61 -49 -55 -58 3 -6 1 -7 -4 -4 -6 4 -22 -2 -36 -13
-14 -11 -48 -25 -76 -32 -27 -6 -48 -14 -46 -18 5 -8 -54 -2 -127 12 -36 6
-58 16 -59 24 0 8 -1 28 -1 44 0 17 1 95 1 175 l1 145 53 -52 c30 -29 97 -96
151 -148 l97 -95 -2 244 c-1 194 -4 248 -15 259 -16 16 -18 32 -4 32 6 0 9 -4
8 -9 -2 -4 20 -26 47 -48 28 -22 56 -52 64 -66 17 -32 22 -33 51 -9 l22 17
-42 48 c-54 61 -156 133 -134 95 6 -10 4 -10 -7 0 -17 15 -37 16 -22 1 9 -9 7
-16 -8 -28 -17 -15 -19 -31 -21 -199 l-2 -183 -31 33 c-17 18 -84 84 -148 146
-99 97 -117 110 -118 90 -2 -37 0 -282 1 -288 1 -3 1 -34 1 -69 -1 -38 3 -69
11 -79 11 -13 11 -14 -1 -7 -11 6 -13 4 -8 -8 10 -26 0 -21 -42 22 -172 176
-93 474 145 544 43 12 70 13 184 4 19 -2 25 3 26 19 1 12 5 28 9 35 6 11 5 11
-5 2 -8 -7 -19 -9 -29 -4 -24 13 -109 18 -163 10z m219 -171 c-3 -8 -6 -5 -6
6 -1 11 2 17 5 13 3 -3 4 -12 1 -19z m-303 -386 c3 -5 -1 -9 -9 -9 -8 0 -12 4
-9 9 3 4 7 8 9 8 2 0 6 -4 9 -8z m1 -82 c-3 -5 -11 -10 -16 -10 -6 0 -7 5 -4
10 3 6 11 10 16 10 6 0 7 -4 4 -10z"/>
<path d="M570 219 c0 -5 5 -7 10 -4 6 3 10 8 10 11 0 2 -4 4 -10 4 -5 0 -10
-5 -10 -11z"/>
<path d="M573 165 c0 -8 4 -12 9 -9 5 3 6 10 3 15 -9 13 -12 11 -12 -6z"/>
<path d="M550 101 c0 -6 4 -13 10 -16 6 -3 7 1 4 9 -7 18 -14 21 -14 7z"/>
</g>
</svg>
